<svg width="22" height="17" viewBox="0 0 22 17" fill="none" xmlns="http://www.w3.org/2000/svg">
    <path fill-rule="evenodd" clip-rule="evenodd" d="M11.1387 16.7335C11.0632 16.8053 10.9735 16.8622 10.8748 16.9011C10.7761 16.94 10.6703 16.96 10.5634 16.96C10.4565 16.96 10.3507 16.94 10.252 16.9011C10.1533 16.8622 10.0636 16.8053 9.98817 16.7335L0.238157 7.48366C0.0855919 7.33892 -0.000118623 7.14261 -0.000118591 6.93792C-0.000118559 6.73322 0.085592 6.53692 0.238157 6.39218C0.390724 6.24744 0.597646 6.16612 0.813408 6.16612C1.02917 6.16612 1.23609 6.24744 1.38866 6.39218L10.5634 15.0978L19.7382 6.39218C19.8907 6.24744 20.0977 6.16612 20.3134 6.16612C20.5292 6.16612 20.7361 6.24744 20.8887 6.39218C21.0412 6.53692 21.127 6.73323 21.127 6.93792C21.127 7.14261 21.0412 7.33892 20.8887 7.48366L11.1387 16.7335Z" fill="#DF2A2B"/>
    <path fill-rule="evenodd" clip-rule="evenodd" d="M11.1387 10.5675C11.0632 10.6393 10.9735 10.6962 10.8748 10.7351C10.7761 10.7739 10.6703 10.7939 10.5634 10.7939C10.4565 10.7939 10.3507 10.7739 10.252 10.7351C10.1533 10.6962 10.0636 10.6393 9.98817 10.5675L0.238157 1.31764C0.0855925 1.1729 -0.000118008 0.976593 -0.000117963 0.7719C-0.000117918 0.567208 0.0855927 0.370899 0.238158 0.226159C0.390725 0.0814198 0.597647 0.000106674 0.813408 0.000106676C1.02917 0.000106677 1.23609 0.0814198 1.38866 0.226159L10.5634 8.93181L19.7382 0.226159C19.8907 0.0814199 20.0977 0.000106805 20.3134 0.000106806C20.5292 0.000106808 20.7361 0.0814199 20.8887 0.226159C21.0412 0.370899 21.127 0.567208 21.127 0.7719C21.127 0.976593 21.0412 1.1729 20.8887 1.31764L11.1387 10.5675Z" fill="#DF2A2B"/>
</svg>
