<svg width="9" height="7" viewBox="0 0 9 7" fill="none" xmlns="http://www.w3.org/2000/svg">
    <path fill-rule="evenodd" clip-rule="evenodd" d="M7.38005 0.234176C7.53007 0.0847084 7.73259 0.000588845 7.94382 3.07972e-06C8.15506 -0.000582686 8.35803 0.0824124 8.50887 0.231046C8.65971 0.379679 8.74628 0.582007 8.74988 0.794288C8.75348 1.00657 8.67382 1.21174 8.52811 1.36546L4.24889 6.74174C4.17534 6.82136 4.08658 6.88525 3.9879 6.9296C3.88923 6.97395 3.78267 6.99785 3.67459 6.99986C3.56652 7.00187 3.45915 6.98196 3.35891 6.94131C3.25867 6.90066 3.16761 6.84011 3.09119 6.76329L0.255883 3.91246C0.176895 3.83848 0.11354 3.74927 0.0695989 3.65015C0.0256576 3.55103 0.00202974 3.44403 0.000125118 3.33553C-0.0017795 3.22703 0.0180782 3.11926 0.0585132 3.01864C0.0989481 2.91802 0.159132 2.82662 0.235475 2.74989C0.311818 2.67316 0.402755 2.61267 0.502862 2.57203C0.60297 2.53138 0.710196 2.51143 0.818144 2.51334C0.926092 2.51525 1.03255 2.539 1.13117 2.58317C1.22979 2.62733 1.31855 2.69101 1.39215 2.7704L3.63681 5.02542L7.35968 0.257879C7.36633 0.249533 7.37349 0.241616 7.38112 0.234176H7.38005Z" fill="#DF2A2B"/>
</svg>
