<svg width="21" height="21" viewBox="0 0 21 21" fill="none" xmlns="http://www.w3.org/2000/svg">
    <g clip-path="url(#clip0)">
        <path d="M12.6003 0H8.39977C4.3464 0 1.04883 3.29757 1.04883 7.35094V10.5014C1.04883 13.3471 2.69003 15.9295 5.24936 17.1443V20.6526C5.24936 20.9573 5.63044 21.1165 5.84692 20.9002L8.89475 17.8523H12.6003C16.6536 17.8523 19.9512 14.5547 19.9512 10.5014V7.35094C19.9512 3.29757 16.6536 0 12.6003 0Z" fill="#665CAC"/>
        <path d="M6.29948 17.1442C3.74015 15.9294 2.09895 13.347 2.09895 10.5013V7.3509C2.09895 3.29757 5.39657 0 9.44989 0H8.39977C4.3464 0 1.04883 3.29757 1.04883 7.35094V10.5014C1.04883 13.3471 2.69003 15.9295 5.24936 17.1443V20.6526C5.24936 20.9573 5.63044 21.1165 5.84692 20.9002L6.29948 20.4476V17.1442Z" fill="#523494"/>
        <path d="M15.7848 13.0471L15.47 11.3423C15.444 11.2014 15.3349 11.0906 15.1945 11.0625L12.7193 10.5675C12.6043 10.5446 12.4859 10.5805 12.4031 10.6633L11.3975 11.6689C9.7032 10.9097 8.76288 9.96734 7.93551 8.20035L8.93785 7.19805C9.02058 7.11528 9.05651 6.99658 9.03358 6.88182L8.53856 4.4066C8.51047 4.26621 8.39968 4.15702 8.25883 4.13102L6.55398 3.81635C6.5073 3.80778 6.45923 3.80868 6.41289 3.81922C5.96274 3.92147 5.55201 4.14829 5.22507 4.47531C4.65898 5.0414 4.44262 5.86746 4.59946 6.86418C4.86274 8.53786 5.68273 10.8671 7.19559 12.386L7.21626 12.4065C8.734 13.9183 11.0632 14.7384 12.737 15.0017C12.9479 15.0349 13.1509 15.0513 13.3457 15.0513C14.0714 15.0513 14.6795 14.8224 15.126 14.376C15.4529 14.0491 15.6798 13.6383 15.782 13.1883C15.7924 13.1419 15.7934 13.0939 15.7848 13.0471Z" fill="white"/>
        <path d="M8.59574 7.5404L8.93798 7.19812L8.93835 7.19775L8.5957 7.54036L8.59574 7.5404Z" fill="#E5E5E5"/>
        <path d="M12.4032 10.663L12.0576 11.0085L12.0577 11.0086L12.4033 10.663L12.4032 10.663Z" fill="#E5E5E5"/>
        <path d="M14.0058 14.3913C13.811 14.3913 13.608 14.3748 13.3971 14.3416C11.7234 14.0783 9.39415 13.2582 7.87636 11.7464L7.85569 11.7259C6.34283 10.207 5.52285 7.87778 5.25957 6.20409C5.13287 5.39883 5.25001 4.70505 5.59819 4.16968C5.46485 4.25864 5.33971 4.36069 5.22507 4.47533C4.65898 5.04142 4.44262 5.86748 4.59946 6.8642C4.86274 8.53788 5.68273 10.8671 7.19559 12.386L7.21626 12.4065C8.734 13.9183 11.0632 14.7384 12.737 15.0017C12.9479 15.0349 13.1509 15.0514 13.3457 15.0514C14.0714 15.0514 14.6795 14.8225 15.126 14.376C15.2406 14.2614 15.3426 14.1363 15.4316 14.003C15.0363 14.2601 14.5548 14.3913 14.0058 14.3913Z" fill="#E5E5E5"/>
        <path d="M11.2006 5.95093C11.0073 5.95093 10.8506 6.10765 10.8506 6.30095C10.8506 6.49426 11.0073 6.65098 11.2006 6.65098C11.9727 6.65098 12.6008 7.2791 12.6008 8.05117C12.6008 8.2419 12.7601 8.4012 12.9508 8.4012C13.1416 8.4012 13.3009 8.2419 13.3009 8.05117C13.3009 6.89306 12.3587 5.95093 11.2006 5.95093Z" fill="white"/>
        <path d="M11.2001 4.55054C11.0707 4.55054 10.94 4.55772 10.8117 4.57187C10.6195 4.59307 10.4809 4.76603 10.5021 4.95823C10.5233 5.15043 10.6967 5.28865 10.8885 5.26778C10.9914 5.25642 11.0962 5.25063 11.2001 5.25063C12.7443 5.25063 14.0005 6.50686 14.0005 8.05098C14.0005 8.15495 13.9947 8.25979 13.9833 8.36265C13.9624 8.55219 14.1033 8.72814 14.2929 8.74902C14.4825 8.7699 14.6583 8.62909 14.6792 8.43948C14.6934 8.31118 14.7006 8.1805 14.7006 8.05098C14.7006 6.12086 13.1303 4.55054 11.2001 4.55054Z" fill="white"/>
        <path d="M11.2001 3.15039C11.075 3.15039 10.9483 3.15515 10.8236 3.16462C10.6309 3.17922 10.4864 3.34739 10.501 3.54012C10.5156 3.73289 10.6843 3.87735 10.8765 3.86275C10.9837 3.85459 11.0926 3.85049 11.2001 3.85049C13.5163 3.85049 15.4007 5.73483 15.4007 8.05102C15.4007 8.37874 15.3628 8.70497 15.2883 9.02063C15.2455 9.20151 15.3569 9.38952 15.5363 9.43866C15.725 9.49034 15.9246 9.37201 15.9696 9.18166C16.0566 8.8133 16.1008 8.43292 16.1008 8.05102C16.1008 5.34879 13.9024 3.15039 11.2001 3.15039Z" fill="white"/>
    </g>
    <defs>
        <clipPath id="clip0">
            <rect width="21" height="21" fill="white"/>
        </clipPath>
    </defs>
</svg>
