<svg width="35" height="22" viewBox="0 0 35 22" fill="none" xmlns="http://www.w3.org/2000/svg">
    <path d="M34.1975 1.48983C34.442 0.630315 34.1975 0 33.0412 0H29.2109C28.2362 0 27.7908 0.545287 27.5463 1.14418C27.5463 1.14418 25.5988 6.17005 22.8391 9.42883C21.9483 10.3771 21.5413 10.6765 21.0558 10.6765C20.813 10.6765 20.4602 10.3771 20.4602 9.51756V1.48983C20.4602 0.458411 20.179 0 19.3668 0H13.3478C12.74 0 12.3732 0.476895 12.3732 0.931608C12.3732 1.90758 13.7531 2.13309 13.8945 4.88355V10.8503C13.8945 12.1571 13.6727 12.3956 13.1837 12.3956C11.8859 12.3956 8.72797 7.3512 6.85383 1.57671C6.48878 0.454714 6.12024 0.00184918 5.14212 0.00184918H1.31348C0.218331 0.00184918 0 0.547136 0 1.14603C0 2.22181 1.29776 7.54529 6.04513 14.586C9.21005 19.3937 13.6657 22 17.7249 22C20.158 22 20.4584 21.4214 20.4584 20.4233V16.7893C20.4584 15.6322 20.6907 15.3993 21.461 15.3993C22.0269 15.3993 23.0015 15.7024 25.2739 18.0185C27.8694 20.7652 28.2991 21.9982 29.7576 21.9982H33.5862C34.6796 21.9982 35.2263 21.4196 34.9119 20.2773C34.5678 19.1405 33.3277 17.4861 31.6824 15.5286C30.7881 14.4122 29.4519 13.2107 29.0449 12.61C28.4773 11.8355 28.6414 11.4935 29.0449 10.8059C29.0467 10.8078 33.7119 3.85397 34.1975 1.48983Z" fill="#4782C6"/>
</svg>
