<svg width="18" height="18" viewBox="0 0 18 18" fill="none" xmlns="http://www.w3.org/2000/svg">
    <path d="M9.00225 0H8.99775C4.03538 0 0 4.0365 0 9C0 10.9688 0.6345 12.7935 1.71337 14.2751L0.59175 17.6186L4.05113 16.5128C5.47425 17.4555 7.17188 18 9.00225 18C13.9646 18 18 13.9624 18 9C18 4.03763 13.9646 0 9.00225 0Z" fill="#4CAF50"/>
    <path d="M13.8213 11.6596C13.6175 12.2775 12.8091 12.7899 12.1642 12.9396C11.723 13.0405 11.1467 13.121 9.20669 12.2571C6.72525 11.1528 5.12725 8.44426 5.00271 8.26853C4.88344 8.0928 4 6.83434 4 5.53279C4 4.23125 4.61535 3.59749 4.86338 3.32539C5.06709 3.10204 5.40379 3 5.72677 3C5.83126 3 5.9252 3.00567 6.00964 3.0102C6.25768 3.02154 6.38222 3.03741 6.54582 3.45803C6.74953 3.98523 7.24561 5.28677 7.30471 5.42055C7.36488 5.55433 7.42504 5.73573 7.3406 5.91147C7.26144 6.09287 7.19178 6.17336 7.06723 6.32755C6.94268 6.48174 6.82447 6.59965 6.69992 6.76518C6.58593 6.90916 6.45716 7.06335 6.60071 7.32978C6.74425 7.59055 7.24033 8.46013 7.97072 9.15852C8.91327 10.0598 9.67744 10.3478 9.95081 10.4703C10.1545 10.561 10.3973 10.5394 10.5461 10.3694C10.735 10.1506 10.9683 9.78775 11.2058 9.43062C11.3747 9.17439 11.5879 9.14265 11.8116 9.23335C12.0396 9.31838 13.246 9.95895 13.4941 10.0916C13.7421 10.2254 13.9057 10.2889 13.9659 10.4011C14.025 10.5133 14.025 11.0405 13.8213 11.6596Z" fill="#FAFAFA"/>
</svg>
